<mxfile host="app.diagrams.net" modified="2024-04-15T07:40:14.955Z" agent="Mozilla/5.0 (Windows NT 10.0; Win64; x64) AppleWebKit/537.36 (KHTML, like Gecko) Chrome/123.0.0.0 Safari/537.36" version="24.1.0" etag="7m5JsQ0G4SQ3Ar4l5YO4" type="github">
  <diagram name="第 1 页" id="GDROYFsv1XtBmJQQd-Hy">
    <mxGraphModel>
      <root>
        <mxCell id="0" />
        <mxCell id="1" parent="0" />
      </root>
    </mxGraphModel>
  </diagram>
</mxfile>
